<svg xmlns="http://www.w3.org/2000/svg" height="48" viewBox="0 -960 960 960" width="48"><path d="M212.384-105q-27.782 0-48.083-20.301T144-173.384v-544.462q0-27.783 20.301-48.084 20.301-20.301 48.083-20.301h66.693v-78h48.769v78h307.385v-78h46.462v78h65.923q27.782 0 48.083 20.301T816-717.846v544.462q0 27.782-20.301 48.083T747.616-105H212.384Zm0-43.769h535.232q9.23 0 16.923-7.692 7.692-7.693 7.692-16.923V-550H187.769v376.616q0 9.23 7.692 16.923 7.693 7.692 16.923 7.692ZM187.769-593.77h584.462v-124.076q0-9.231-7.692-16.923-7.693-7.693-16.923-7.693H212.384q-9.23 0-16.923 7.693-7.692 7.692-7.692 16.923v124.076Zm0 0v-148.692 148.692Zm292.038 202.924q-13.192 0-23.384-10.386-10.192-10.385-10.192-23.576 0-13.192 10.385-23.384 10.385-10.193 23.577-10.193 13.192 0 23.384 10.386 10.192 10.385 10.192 23.577 0 13.191-10.385 23.383-10.385 10.193-23.577 10.193Zm-160 0q-13.192 0-23.384-10.386-10.192-10.385-10.192-23.576 0-13.192 10.385-23.384 10.385-10.193 23.577-10.193 13.192 0 23.384 10.386 10.192 10.385 10.192 23.577 0 13.191-10.385 23.383-10.385 10.193-23.577 10.193Zm320 0q-13.192 0-23.384-10.386-10.192-10.385-10.192-23.576 0-13.192 10.385-23.384 10.385-10.193 23.577-10.193 13.192 0 23.384 10.386 10.192 10.385 10.192 23.577 0 13.191-10.385 23.383-10.385 10.193-23.577 10.193ZM479.807-237q-13.192 0-23.384-10.385-10.192-10.386-10.192-23.577 0-13.192 10.385-23.384 10.385-10.193 23.577-10.193 13.192 0 23.384 10.386 10.192 10.385 10.192 23.577 0 13.191-10.385 23.384Q492.999-237 479.807-237Zm-160 0q-13.192 0-23.384-10.385-10.192-10.386-10.192-23.577 0-13.192 10.385-23.384 10.385-10.193 23.577-10.193 13.192 0 23.384 10.386 10.192 10.385 10.192 23.577 0 13.191-10.385 23.384Q332.999-237 319.807-237Zm320 0q-13.192 0-23.384-10.385-10.192-10.386-10.192-23.577 0-13.192 10.385-23.384 10.385-10.193 23.577-10.193 13.192 0 23.384 10.386 10.192 10.385 10.192 23.577 0 13.191-10.385 23.384Q652.999-237 639.807-237Z"/></svg>