<svg xmlns="http://www.w3.org/2000/svg" height="48" viewBox="0 -960 960 960" width="48"><path d="M172.384-185q-27.782 0-48.083-20.301T104-253.384v-453.232q0-27.782 20.301-48.083T172.384-775h615.232q27.782 0 48.083 20.301T856-706.616v453.232q0 27.782-20.301 48.083T787.616-185H172.384ZM480-474.846 147.769-693.769v440.385q0 10.769 6.923 17.692t17.692 6.923h615.232q10.769 0 17.692-6.923t6.923-17.692v-440.385L480-474.846Zm0-46.385 322.231-210H158.769l321.231 210ZM143.769-693.769v-37.462 477.847q3 10.769 10.423 17.692t18.192 6.923h-28.615v-465Z"/></svg>