<svg xmlns="http://www.w3.org/2000/svg" height="48" viewBox="0 -960 960 960" width="48"><path d="M293.384-63q-27.782 0-48.083-20.3Q225-103.603 225-131.385v-697.232q0-27.782 20.301-48.083T293.384-897h373.232q27.782 0 48.083 20.301T735-828.616v697.232q0 27.782-20.301 48.083T666.616-63H293.384Zm-24.615-164.384v96q0 9.23 7.692 16.923 7.693 7.692 16.923 7.692h373.232q9.23 0 16.923-7.692 7.692-7.693 7.692-16.923v-96H268.769Zm211.613 89.077q11.31 0 20.041-8.715t8.731-20.423q0-11.709-9.113-20.439-9.113-8.731-20.423-8.731-11.31 0-20.041 9.109-8.731 9.108-8.731 20.413 0 12.093 9.113 20.439 9.113 8.347 20.423 8.347ZM268.769-271.154h422.462v-487.923H268.769v487.923Zm0-531.692h422.462v-25.77q0-9.23-7.692-16.923-7.693-7.692-16.923-7.692H293.384q-9.23 0-16.923 7.692-7.692 7.693-7.692 16.923v25.77Zm0 575.462V-106.769v-120.615Zm0-575.462v-50.385 50.385Z"/></svg>