<svg xmlns="http://www.w3.org/2000/svg" height="48" viewBox="0 -960 960 960" width="48"><path d="M253.384-98q-28.442 0-48.413-19.971Q185-137.942 185-166.384v-370.309q0-29.038 19.971-48.711t48.413-19.673h57.231v-87.539q0-71.706 49.329-121.045T480.023-863q70.751 0 120.056 49.339 49.306 49.339 49.306 121.045v87.539h57.231q28.442 0 48.413 19.673Q775-565.731 775-536.693v370.309q0 28.442-19.971 48.413Q735.058-98 706.616-98H253.384Zm0-43.769h453.232q10.769 0 17.692-6.923t6.923-17.692v-370.309q0-10.769-6.923-17.692t-17.692-6.923H253.384q-10.769 0-17.692 6.923t-6.923 17.692v370.309q0 10.769 6.923 17.692t17.692 6.923ZM480.248-285q27.06 0 46.175-19.111 19.116-19.111 19.116-46.046 0-25.997-19.364-45.958-19.363-19.962-46.423-19.962-27.06 0-46.175 20.041-19.116 20.041-19.116 46.539 0 26.497 19.364 45.497 19.363 19 46.423 19ZM354.385-605.077h251.23v-87.539q0-52.923-36.624-89.769-36.625-36.846-88.946-36.846t-88.991 36.846q-36.669 36.846-36.669 89.769v87.539ZM228.769-141.769V-561.308-141.769Z"/></svg>