<svg xmlns="http://www.w3.org/2000/svg" height="48" viewBox="0 -960 960 960" width="48"><path d="M458.615-204.538h43.77v-128.308h128.307v-43.769H502.385v-127.539h-43.77v127.539H331.077v43.769h127.538v128.308ZM253.384-98q-28.25 0-48.317-20.067T185-166.384v-370.309q0-28.846 20.067-48.615 20.067-19.769 48.317-19.769h57.231v-87.539q0-71.706 49.329-121.045T480.023-863q70.751 0 120.056 49.339 49.306 49.339 49.306 121.045v87.539h57.231q28.25 0 48.317 19.769T775-536.693v370.309q0 28.25-20.067 48.317T706.616-98H253.384Zm0-43.769h453.232q10.769 0 17.692-6.923t6.923-17.692v-370.309q0-10.769-6.923-17.692t-17.692-6.923H253.384q-10.769 0-17.692 6.923t-6.923 17.692v370.309q0 10.769 6.923 17.692t17.692 6.923Zm101.001-463.308h251.23v-87.539q0-52.923-36.624-89.769-36.625-36.846-88.946-36.846t-88.991 36.846q-36.669 36.846-36.669 89.769v87.539ZM228.769-141.769V-561.308-141.769Z"/></svg>